<?xml version="1.0" encoding="UTF-8" standalone="no"?>
<svg
   xmlns:dc="http://purl.org/dc/elements/1.1/"
   xmlns:cc="http://creativecommons.org/ns#"
   xmlns:rdf="http://www.w3.org/1999/02/22-rdf-syntax-ns#"
   xmlns:svg="http://www.w3.org/2000/svg"
   xmlns="http://www.w3.org/2000/svg"
   xmlns:xlink="http://www.w3.org/1999/xlink"
   xmlns:sodipodi="http://sodipodi.sourceforge.net/DTD/sodipodi-0.dtd"
   xmlns:inkscape="http://www.inkscape.org/namespaces/inkscape"
   data-v-d3f97b9e=""
   viewBox="0 0 270 94"
   version="1.1"
   id="svg35"
   sodipodi:docname="default-monochrome-txt-white-grad.svg"
   inkscape:version="0.92.2 5c3e80d, 2017-08-06"
   width="270"
   height="94">
  <metadata
     id="metadata41">
    <rdf:RDF>
      <cc:Work
         rdf:about="">
        <dc:format>image/svg+xml</dc:format>
        <dc:type
           rdf:resource="http://purl.org/dc/dcmitype/StillImage" />
        <dc:title></dc:title>
      </cc:Work>
    </rdf:RDF>
  </metadata>
  <defs
     id="defs39">
    <clipPath
       clipPathUnits="userSpaceOnUse"
       id="clipPath874">
      <rect
         style="opacity:1;fill:#39ffff;fill-opacity:0.39086298;stroke:none;stroke-width:13.5;stroke-linecap:round;stroke-linejoin:round;stroke-miterlimit:4;stroke-dasharray:none;stroke-dashoffset:0;stroke-opacity:0.99523806;paint-order:markers stroke fill"
         id="rect876"
         width="140.76505"
         height="66.454605"
         x="112.96249"
         y="15.704774"
         ry="5.7258501"
         rx="0" />
    </clipPath>
    <linearGradient
       inkscape:collect="always"
       xlink:href="#88906f4d-fd27-467c-89d0-959b56b559be"
       id="linearGradient878"
       gradientTransform="scale(0.65588932,1.5246475)"
       x1="121.31772"
       y1="15.681002"
       x2="139.94891"
       y2="15.681002"
       gradientUnits="userSpaceOnUse" />
    <linearGradient
       inkscape:collect="always"
       xlink:href="#88906f4d-fd27-467c-89d0-959b56b559be"
       id="linearGradient880"
       gradientTransform="scale(0.83035521,1.2043039)"
       x1="92.476089"
       y1="25.718592"
       x2="113.9416"
       y2="25.718592"
       gradientUnits="userSpaceOnUse" />
    <linearGradient
       inkscape:collect="always"
       xlink:href="#88906f4d-fd27-467c-89d0-959b56b559be"
       id="linearGradient882"
       gradientTransform="scale(0.84355051,1.1854655)"
       x1="45.73296"
       y1="3.4686797"
       x2="96.669067"
       y2="3.4686797"
       gradientUnits="userSpaceOnUse" />
    <linearGradient
       inkscape:collect="always"
       xlink:href="#88906f4d-fd27-467c-89d0-959b56b559be"
       id="linearGradient884"
       gradientTransform="scale(1.1928052,0.83835988)"
       x1="3.3552818"
       y1="59.084988"
       x2="58.856216"
       y2="59.084988"
       gradientUnits="userSpaceOnUse" />
    <linearGradient
       inkscape:collect="always"
       xlink:href="#88906f4d-fd27-467c-89d0-959b56b559be"
       id="linearGradient886"
       gradientTransform="scale(0.92891224,1.076528)"
       x1="42.175781"
       y1="38.972893"
       x2="61.023956"
       y2="38.972893"
       gradientUnits="userSpaceOnUse" />
    <linearGradient
       inkscape:collect="always"
       xlink:href="#88906f4d-fd27-467c-89d0-959b56b559be"
       id="linearGradient888"
       gradientTransform="scale(0.93863144,1.0653809)"
       x1="81.355675"
       y1="50.066601"
       x2="87.193962"
       y2="50.066601"
       gradientUnits="userSpaceOnUse" />
    <linearGradient
       inkscape:collect="always"
       xlink:href="#88906f4d-fd27-467c-89d0-959b56b559be"
       id="linearGradient890"
       gradientTransform="scale(0.99012686,1.0099716)"
       x1="74.841927"
       y1="57.869946"
       x2="79.57869"
       y2="57.869946"
       gradientUnits="userSpaceOnUse" />
    <linearGradient
       inkscape:collect="always"
       xlink:href="#88906f4d-fd27-467c-89d0-959b56b559be"
       id="linearGradient892"
       gradientTransform="scale(0.95654403,1.0454302)"
       x1="74.633972"
       y1="59.034363"
       x2="79.663544"
       y2="59.034363"
       gradientUnits="userSpaceOnUse" />
    <linearGradient
       inkscape:collect="always"
       xlink:href="#88906f4d-fd27-467c-89d0-959b56b559be"
       id="linearGradient894"
       gradientTransform="scale(0.91678633,1.0907667)"
       x1="75.849899"
       y1="59.279884"
       x2="80.671227"
       y2="59.279884"
       gradientUnits="userSpaceOnUse" />
    <linearGradient
       inkscape:collect="always"
       xlink:href="#88906f4d-fd27-467c-89d0-959b56b559be"
       id="linearGradient896"
       gradientTransform="scale(0.99102948,1.0090517)"
       x1="67.477371"
       y1="67.726128"
       x2="71.751839"
       y2="67.726128"
       gradientUnits="userSpaceOnUse" />
    <linearGradient
       inkscape:collect="always"
       xlink:href="#88906f4d-fd27-467c-89d0-959b56b559be"
       id="linearGradient898"
       gradientTransform="scale(0.95616754,1.0458418)"
       x1="67.381126"
       y1="68.160965"
       x2="71.917984"
       y2="68.160965"
       gradientUnits="userSpaceOnUse" />
    <linearGradient
       inkscape:collect="always"
       xlink:href="#88906f4d-fd27-467c-89d0-959b56b559be"
       id="linearGradient900"
       gradientTransform="scale(0.76879286,1.3007405)"
       x1="81.628059"
       y1="17.252569"
       x2="124.87109"
       y2="17.252569"
       gradientUnits="userSpaceOnUse" />
    <linearGradient
       inkscape:collect="always"
       xlink:href="#88906f4d-fd27-467c-89d0-959b56b559be"
       id="linearGradient902"
       gradientTransform="scale(1.0002477,0.99975234)"
       x1="4.0012064"
       y1="4.1130185"
       x2="95.976227"
       y2="4.1130185"
       gradientUnits="userSpaceOnUse" />
    <radialGradient
       inkscape:collect="always"
       xlink:href="#88906f4d-fd27-467c-89d0-959b56b559be"
       id="radialGradient2413"
       cx="183.5887"
       cy="46.973412"
       fx="183.5887"
       fy="46.973412"
       r="70.138832"
       gradientTransform="matrix(1,0,0,0.43547201,0,26.517805)"
       gradientUnits="userSpaceOnUse" />
  </defs>
  <sodipodi:namedview
     pagecolor="#ffffff"
     bordercolor="#666666"
     borderopacity="1"
     objecttolerance="10"
     gridtolerance="10"
     guidetolerance="10"
     inkscape:pageopacity="0"
     inkscape:pageshadow="2"
     inkscape:window-width="1280"
     inkscape:window-height="710"
     id="namedview37"
     showgrid="false"
     inkscape:zoom="2.3647416"
     inkscape:cx="164.07712"
     inkscape:cy="47"
     inkscape:window-x="0"
     inkscape:window-y="1"
     inkscape:window-maximized="1"
     inkscape:current-layer="svg35"
     inkscape:pagecheckerboard="true" />
  <!---->
  <!---->
  <!---->
  <path
     inkscape:connector-curvature="0"
     style="fill:none;fill-opacity:1;stroke-width:1.08699473;stroke:url(#radialGradient2413);stroke-miterlimit:4;stroke-dasharray:none"
     id="path2"
     d="m 116.01235,75.213272 v 0 0 q -0.88007,-0.931838 -1.44953,-2.381363 v 0 0 q -0.56945,-1.397757 -0.56945,-3.313201 v 0 0 q 0,-1.863676 0.88006,-5.073339 v 0 0 q 0.88007,-3.157895 2.22606,-7.247627 v 0 l 2.95082,-8.80069 v 0 q 6.36756,-18.429681 7.35117,-28.472821 v 0 0 q 0.31061,-2.95082 2.89905,-2.95082 v 0 0 q 1.60483,0 2.69197,0.776532 v 0 0 q 2.01898,1.553063 1.96722,3.468507 v 0 0 q -0.0518,1.915445 -0.673,4.659189 v 0 0 q -0.56945,2.743745 -1.55306,5.953408 v 0 0 q -0.93184,3.261432 -2.17429,6.833477 v 0 l -4.91803,14.391717 v 0 q -4.19327,12.217428 -4.19327,15.789473 v 0 0 q 0,1.915444 1.55306,1.915444 v 0 0 q 1.50129,0 2.69198,-0.621225 v 0 0 q 1.24245,-0.621225 1.60483,-0.621225 v 0 0 q 0.72476,0 0.72476,0.724763 v 0 0 q 0,3.157894 -3.20966,5.280414 v 0 0 q -2.17429,1.449525 -3.93443,1.449525 v 0 0 q -1.81191,0 -2.89905,-0.41415 v 0 0 q -1.08714,-0.41415 -1.96721,-1.345988 z m 37.58412,-43.537531 v 0 0 q -0.77653,0.8283 -1.76014,1.345988 v 0 0 q -0.9836,0.517687 -2.07075,0.672994 v 0 0 q -1.08714,0.103537 -2.07075,-0.362382 v 0 0 q -0.9836,-0.465919 -1.70837,-1.294219 v 0 0 q -1.50129,-1.760138 -1.50129,-3.572045 v 0 0 q 0,-1.811906 0.56945,-2.691975 v 0 0 q 0.62123,-0.931838 1.5013,-1.501295 v 0 0 q 1.6566,-1.087144 3.20966,-1.087144 v 0 0 q 1.5013,0 2.3296,0.207075 v 0 0 q 0.8283,0.207075 1.50129,0.724763 v 0 0 q 1.76014,1.138913 1.76014,2.847282 v 0 0 q 0,1.656601 -0.46592,2.795513 v 0 0 q -0.51769,1.087144 -1.29422,1.915445 z m -7.24763,38.308886 v 0 0 q 0.93184,0 0.93184,1.24245 v 0 0 q 0,1.553063 -1.44952,3.261432 v 0 0 q -2.12252,2.484901 -5.69457,2.484901 v 0 0 q -4.08973,0 -5.64279,-3.313201 v 0 0 q -0.56946,-1.190681 -0.56946,-2.847282 v 0 0 q 0,-1.6566 0.62123,-3.675582 v 0 0 q 0.56945,-2.070751 1.44952,-4.296808 v 0 0 q 0.8283,-2.226057 1.86368,-4.555651 v 0 l 1.86367,-4.452114 v 0 q 2.07075,-4.969801 2.07075,-6.574633 v 0 0 q 0,-1.604832 -0.31061,-2.122519 v 0 0 q -0.36238,-0.517688 -0.72476,-0.776532 v 0 l -0.72477,-0.517687 v 0 q -0.36238,-0.258844 -0.36238,-0.880069 v 0 0 q 0,-0.621226 0.46592,-1.138913 v 0 0 q 0.46592,-0.569457 1.29422,-1.035376 v 0 0 q 1.55306,-0.776531 3.67558,-0.776531 v 0 0 q 5.22865,0 5.22865,2.691976 v 0 0 q 0,3.209663 -1.6566,7.299396 v 0 0 q -1.6566,4.089732 -2.84728,6.574633 v 0 l -2.12252,4.918032 v 0 q -2.3296,5.383952 -2.3296,7.713546 v 0 0 q 0,1.553063 1.55307,1.553063 v 0 0 q 1.50129,0 2.27782,-0.362381 v 0 0 q 0.77653,-0.41415 1.13891,-0.41415 z m 9.21484,-3.416739 v 0 0 q 0,-2.07075 0.31062,-3.934426 v 0 0 q 0.31061,-1.863675 0.77653,-3.77912 v 0 0 q 0.46592,-1.915444 1.08714,-3.830888 v 0 l 3.93443,-12.113891 v 0 q 4.71096,-14.70233 5.90164,-22.985332 v 0 0 q 0.41415,-2.95082 2.89905,-2.95082 v 0 0 q 1.50129,0 2.53667,0.776532 v 0 0 q 1.86367,1.501294 1.8119,3.209663 v 0 0 q -0.0518,1.70837 -0.46591,3.830889 v 0 0 q -0.46592,2.122519 -1.13892,4.60742 v 0 0 q -0.72476,2.433132 -1.60483,5.176877 v 0 0 q -2.32959,6.988783 -3.52027,10.146678 v 0 l -2.01899,5.228645 v 0 q 3.05436,-4.762727 5.02157,-6.522865 v 0 0 q 3.88266,-3.416738 8.1277,-3.416738 v 0 0 q 6.16048,0 8.23123,6.471096 v 0 0 q 0.673,2.226056 0.673,5.539257 v 0 0 q 0,3.313201 -0.98361,6.626402 v 0 0 q -0.98361,3.261432 -2.64021,6.056946 v 0 0 q -1.6566,2.847282 -3.88265,5.073339 v 0 0 q -2.17429,2.277825 -4.65919,3.882657 v 0 0 q -5.12511,3.313201 -9.99137,3.313201 v 0 0 q -4.86627,0 -7.66178,-2.950819 v 0 0 q -2.74375,-3.002589 -2.74375,-7.454703 z m 9.88784,5.798102 v 0 0 q 3.36497,0 6.78171,-2.95082 v 0 0 q 5.22864,-4.555651 7.04055,-12.942191 v 0 0 q 0.62122,-2.795513 0.62122,-5.798102 v 0 0 q 0,-2.950819 -0.67299,-4.193269 v 0 0 q -0.67299,-1.190682 -2.07075,-1.190682 v 0 0 q -1.39776,0 -2.95082,1.138913 v 0 0 q -1.50129,1.138913 -3.1579,3.002588 v 0 0 q -1.6566,1.863676 -3.3132,4.296808 v 0 0 q -1.60483,2.381363 -2.95082,4.969801 v 0 0 q -2.84728,5.694564 -2.84728,9.680759 v 0 0 q 0,3.986195 3.52028,3.986195 z m 28.0069,3.416739 v 0 0 q -0.72476,-0.517688 -1.13891,-1.190682 v 0 0 q -0.41415,-0.672994 -0.46592,-1.138913 v 0 0 q 0,-0.465919 0.20707,-1.190682 v 0 0 q 0.25885,-0.672993 0.62123,-1.6566 v 0 0 q 7.24763,-17.756686 7.24763,-23.865401 v 0 0 q -0.15531,-1.708369 -1.19069,-2.381363 v 0 l -0.72476,-0.517687 v 0 q -0.31061,-0.258844 -0.31061,-0.880069 v 0 0 q -0.0518,-0.621226 0.41415,-1.138913 v 0 0 q 0.46592,-0.569457 1.24245,-1.035376 v 0 0 q 1.50129,-0.776531 3.10613,-0.776531 v 0 0 q 1.60483,0 2.53666,0.362381 v 0 0 q 0.88007,0.310613 1.5013,0.931838 v 0 0 q 1.34599,1.294219 1.39776,2.691976 v 0 0 q 0,1.397756 -0.31062,2.847282 v 0 0 q -0.36238,1.449525 -0.8283,2.847282 v 0 0 q -0.46592,1.397757 -0.93184,2.691976 v 0 0 q -0.46591,1.24245 -0.56945,1.811907 v 0 0 q -0.31061,1.24245 -0.20708,1.604831 v 0 0 q 0.8283,-0.776531 0.98361,-1.449525 v 0 l 1.39776,-2.640207 v 0 q 4.60742,-8.283003 9.00776,-10.974978 v 0 0 q 1.24245,-0.724763 3.05436,-0.724763 v 0 0 q 1.76014,0 2.89905,1.24245 v 0 0 q 1.08714,1.242451 1.13891,2.795514 v 0 0 q 0.0518,1.501294 -0.20707,2.4849 v 0 0 q -0.25885,1.035376 -0.8283,1.915445 v 0 0 q -1.13892,1.967213 -2.79552,1.967213 v 0 0 q -0.46592,0 -0.88007,-0.310613 v 0 l -0.77653,-0.672994 v 0 q -1.13891,-1.035375 -2.22605,-1.035375 v 0 0 q -1.08715,0 -2.64021,1.449525 v 0 0 q -1.55306,1.397757 -3.20966,3.623814 v 0 0 q -5.59103,7.402933 -9.11131,16.566005 v 0 l -1.55306,4.089732 v 0 q -0.62122,1.553063 -1.08714,2.174288 v 0 0 q -0.41415,0.672994 -1.34599,0.672994 v 0 0 q -0.88007,0 -1.81191,-0.310612 v 0 0 q -0.88007,-0.362382 -1.60483,-0.880069 z m 31.1648,-0.569457 v 0 0 q -0.88007,-0.931838 -1.39776,-2.381363 v 0 0 Q 222.656,71.434152 222.656,69.518708 v 0 0 q 0,-1.863676 0.88007,-5.073339 v 0 0 q 0.88007,-3.157895 2.22606,-7.247627 v 0 l 2.95082,-8.80069 v 0 q 6.31579,-18.429681 7.29939,-28.472821 v 0 0 q 0.36239,-2.95082 2.95082,-2.95082 v 0 0 q 1.60484,0 2.64021,0.776532 v 0 0 q 2.07075,1.553063 2.01898,3.468507 v 0 0 q -0.10353,1.915445 -0.67299,4.659189 v 0 0 q -0.62123,2.743745 -1.55306,5.953408 v 0 0 q -0.98361,3.261432 -2.22606,6.833477 v 0 l -4.86626,14.391717 v 0 q -4.19327,12.217428 -4.19327,15.789473 v 0 0 q 0,1.915444 1.55306,1.915444 v 0 0 q 1.44952,0 2.69197,-0.621225 v 0 0 q 1.24245,-0.621225 1.55307,-0.621225 v 0 0 q 0.77653,0 0.77653,0.724763 v 0 0 q 0,3.157894 -3.20966,5.280414 v 0 0 q -2.17429,1.449525 -3.9862,1.449525 v 0 0 q -1.76014,0 -2.84728,-0.41415 v 0 0 q -1.13891,-0.41415 -2.01898,-1.345988 z m 19.41328,0.207075 v 0 0 q -0.77653,-0.776531 -1.24245,-1.811907 v 0 0 q -0.46592,-0.983606 -0.46592,-2.329594 v 0 0 q 0,-1.294219 0.51769,-2.329594 v 0 0 q 0.51769,-1.087145 1.29422,-1.70837 v 0 0 q 1.39776,-1.138913 2.89905,-1.138913 v 0 0 q 1.55306,0 2.64021,0.207076 v 0 0 q 1.08714,0.207075 2.01898,0.672993 v 0 0 q 2.22606,1.138913 2.22606,3.261433 v 0 0 q 0,2.640207 -1.76014,4.659189 v 0 0 q -1.60483,1.811906 -3.36497,2.018981 v 0 0 q -1.76014,0.155307 -2.84728,-0.258843 v 0 0 Q 244.8648,76.196879 244.0365,75.420347 Z M 262.41441,64.3936 v 0 0 q 0.10354,-3.054357 0.98361,-6.108714 v 0 0 q 0.93184,-3.054357 2.43313,-5.798102 v 0 0 q 1.5013,-2.743744 3.57205,-5.02157 v 0 0 q 2.07075,-2.329594 4.50388,-3.986195 v 0 0 q 5.07334,-3.468507 10.71614,-3.468507 v 0 0 q 5.7981,0 7.86885,4.60742 v 0 0 q 0.77653,1.6566 0.72476,3.77912 v 0 0 q -0.0518,2.122519 -0.72476,3.882657 v 0 0 q -0.62123,1.708369 -1.55307,3.106126 v 0 0 q -2.17428,3.106126 -4.34857,3.106126 v 0 0 q -2.4849,0 -3.62382,-1.345988 v 0 0 q -1.03537,-1.138913 -0.62122,-2.691976 v 0 0 q 0.10354,-0.465919 0.62122,-0.8283 v 0 0 q 0.51769,-0.41415 1.34599,-1.190682 v 0 0 q 2.27783,-2.433131 2.38137,-5.642795 v 0 0 q 0.10353,-2.174288 -2.69198,-2.174288 v 0 0 q -2.95082,0 -6.21225,3.313201 v 0 0 q -4.71096,4.814495 -6.67817,12.424504 v 0 0 q -1.70837,6.574633 0.62122,9.62899 v 0 0 q 1.39776,1.760138 3.77912,1.760138 v 0 0 q 3.9862,0 7.71355,-2.847282 v 0 0 q 1.13891,-0.880069 1.81191,-1.811907 v 0 0 q 0.72476,-0.880069 1.34598,-0.880069 v 0 0 q 0.56946,0 0.98361,0.569456 v 0 0 q 0.41415,0.569457 0.41415,1.501295 v 0 0 q 0,2.07075 -1.86368,4.089732 v 0 0 q -4.81449,4.60742 -11.5962,4.60742 v 0 0 q -5.74633,0 -8.90423,-3.313201 v 0 0 q -3.10612,-3.209663 -3.00259,-9.266609 z m 37.27352,9.836066 v 0 0 q -1.44953,-1.449526 -2.3296,-3.623814 v 0 0 q -0.8283,-2.174288 -0.88007,-5.125108 v 0 0 q -0.0518,-3.002588 0.72476,-6.005176 v 0 0 q 0.77654,-3.054358 2.17429,-5.90164 v 0 0 q 1.39776,-2.847282 3.36497,-5.280414 v 0 0 q 1.96722,-2.4849 4.29681,-4.348576 v 0 0 q 5.17688,-3.934426 10.7679,-3.934426 v 0 0 q 7.24763,0 9.83607,6.367558 v 0 0 q 1.86367,4.659189 0.20707,11.233822 v 0 0 q -1.44952,6.056946 -5.43572,11.130284 v 0 0 q -3.93442,5.073339 -9.26661,7.195859 v 0 0 q -2.69197,1.035375 -5.28041,1.035375 v 0 0 q -2.58844,0 -4.65919,-0.672994 v 0 0 q -2.01898,-0.672994 -3.52027,-2.07075 z m 6.7817,-17.18723 v 0 0 q -1.08714,2.640207 -1.70837,5.383951 v 0 0 q -0.62122,2.743745 -0.56945,5.228645 v 0 0 q 0.0518,2.433132 0.77653,3.830889 v 0 0 q 0.72476,1.397757 2.32959,1.397757 v 0 0 q 1.6566,0 3.20967,-1.087144 v 0 0 q 1.60483,-1.138913 3.05435,-2.95082 v 0 0 q 1.5013,-1.863676 2.79552,-4.245039 v 0 0 q 1.34599,-2.433132 2.32959,-5.02157 v 0 0 q 2.12252,-5.694564 2.07075,-10.146678 v 0 0 q 0,-3.882657 -1.60483,-4.969801 v 0 0 q -0.62122,-0.41415 -1.76014,-0.41415 v 0 0 q -1.19068,0 -2.6402,1.035375 v 0 0 q -1.5013,1.087144 -3.00259,2.847282 v 0 0 q -1.44953,1.760138 -2.84728,4.141501 v 0 0 q -1.39776,2.381363 -2.43314,4.969802 z"
     clip-path="url(#clipPath874)"
     transform="matrix(0.96931092,0,0,0.87313625,-2.4219567,9.7651354)" />
  <linearGradient
     data-v-d3f97b9e=""
     gradientTransform="rotate(25)"
     id="88906f4d-fd27-467c-89d0-959b56b559be"
     x1="0"
     y1="0"
     x2="1"
     y2="0">
    <stop
       data-v-d3f97b9e=""
       offset="0%"
       style="stop-color: rgb(240, 0, 121); stop-opacity: 1;"
       id="stop5" />
    <stop
       data-v-d3f97b9e=""
       offset="100%"
       style="stop-color: rgb(242, 160, 65); stop-opacity: 1;"
       id="stop7" />
  </linearGradient>
  <g
     data-v-d3f97b9e=""
     id="3e425ffc-66a4-4492-aa43-f414f962ee40"
     transform="matrix(1.0216916,0,0,1.0216916,-4.0834954,-4.0626091)"
     style="fill:url(#linearGradient902);stroke:none">
    <path
       d="m 89.978,23.908 1.813,0.681 -10.406,27.725 -1.814,-0.68 z"
       id="path10"
       inkscape:connector-curvature="0"
       style="fill:url(#linearGradient878)" />
    <path
       d="m 92.99,30.973 1.622,1.06 -16.203,24.791 -1.621,-1.06 z"
       id="path12"
       inkscape:connector-curvature="0"
       style="fill:url(#linearGradient880)" />
    <path
       d="M 75.86,63.963 C 14.869,44.158 59.846,12.536 59.846,12.536 c 25.83,14.727 22,36.158 18.413,46.052 4.302,-11.47 9.46,-37.153 -20.864,-54.476 0,0 -52.65,37.61 18.188,60.383 0,0 0.208,-0.357 0.544,-1.017 -0.168,0.315 -0.267,0.485 -0.267,0.485 z"
       id="path14"
       inkscape:connector-curvature="0"
       style="fill:url(#linearGradient882)" />
    <path
       d="m 13.333,87.402 c 0,0 -3.145,-50.252 40.128,-31.939 C 0.275,30.762 4.061,91.235 4.061,91.235 49.051,109.057 67.457,72.273 70.204,66.043 67.342,72.324 51.338,102.458 13.333,87.402 Z"
       id="path16"
       inkscape:connector-curvature="0"
       style="fill:url(#linearGradient884)" />
    <path
       d="m 46.016,62.246 c -0.648,0 -1.315,-0.062 -1.983,-0.186 -2.126,-0.388 -3.811,-1.287 -4.505,-2.405 -0.339,-0.547 -0.435,-1.131 -0.275,-1.688 0.368,-1.292 1.979,-2.064 4.312,-2.064 0.646,0 1.311,0.062 1.978,0.185 2.125,0.388 3.81,1.287 4.504,2.405 0.34,0.548 0.436,1.132 0.276,1.69 -0.367,1.292 -1.978,2.063 -4.307,2.063 z M 43.564,57.84 c -1.72,0 -2.408,0.514 -2.45,0.658 -0.003,0.255 0.974,1.239 3.268,1.658 a 9.136,9.136 0 0 0 1.633,0.153 c 1.586,0 2.391,-0.471 2.444,-0.657 0.006,-0.255 -0.965,-1.239 -3.266,-1.66 A 9.073,9.073 0 0 0 43.564,57.84 Z m 9.081,-15.833 c 1.411,-0.378 3.095,1.362 3.767,3.882 0.669,2.519 0.071,4.866 -1.342,5.24 -1.408,0.375 -3.092,-1.366 -3.762,-3.884 -0.67,-2.519 -0.071,-4.866 1.337,-5.238 z"
       id="path18"
       inkscape:connector-curvature="0"
       style="fill:url(#linearGradient886)" />
    <ellipse
       transform="rotate(-176.03,79.102,56.452)"
       cx="79.102997"
       cy="56.450001"
       rx="2.74"
       ry="3.1099999"
       id="ellipse20"
       style="fill:url(#linearGradient888)" />
    <ellipse
       transform="rotate(3.97,76.479,60.82)"
       cx="76.447998"
       cy="60.839001"
       rx="2.345"
       ry="2.392"
       id="ellipse22"
       style="fill:url(#linearGradient890)" />
    <path
       d="m 76.195,64.512 c -0.103,1.448 -1.256,2.549 -2.581,2.457 -1.323,-0.091 -2.319,-1.343 -2.216,-2.791 0.101,-1.446 1.256,-2.551 2.581,-2.456 1.323,0.089 2.314,1.339 2.216,2.79 z"
       id="path24"
       inkscape:connector-curvature="0"
       style="fill:url(#linearGradient892)" />
    <path
       d="m 73.951,67.442 c -0.103,1.447 -1.169,2.557 -2.386,2.473 -1.217,-0.085 -2.121,-1.329 -2.019,-2.777 0.098,-1.448 1.167,-2.557 2.382,-2.473 1.218,0.084 2.121,1.328 2.023,2.777 z"
       id="path26"
       inkscape:connector-curvature="0"
       style="fill:url(#linearGradient894)" />
    <path
       d="m 71.103,70.642 c -0.083,1.191 -1.093,2.088 -2.261,2.005 -1.166,-0.079 -2.044,-1.109 -1.965,-2.294 0.085,-1.19 1.099,-2.088 2.262,-2.009 1.168,0.082 2.045,1.109 1.964,2.298 z"
       id="path28"
       inkscape:connector-curvature="0"
       style="fill:url(#linearGradient896)" />
    <path
       d="m 68.759,73.809 c -0.087,1.31 -1.129,2.304 -2.324,2.216 -1.195,-0.081 -2.092,-1.209 -2.001,-2.515 0.089,-1.308 1.133,-2.299 2.328,-2.22 1.195,0.083 2.09,1.209 1.997,2.519 z"
       id="path30"
       inkscape:connector-curvature="0"
       style="fill:url(#linearGradient898)" />
    <path
       d="m 66.735,76.453 c -0.091,1.31 -1.055,2.308 -2.149,2.232 -1.099,-0.076 -1.915,-1.198 -1.824,-2.507 0.089,-1.309 1.053,-2.305 2.153,-2.229 1.093,0.077 1.909,1.199 1.82,2.504 z M 96,30.635 a 1.453,1.453 0 0 1 -2.905,0 1.453,1.453 0 0 1 2.905,0 z m -3.874,-6.779 a 1.454,1.454 0 0 1 -2.905,0 1.453,1.453 0 0 1 2.905,0 z"
       id="path32"
       inkscape:connector-curvature="0"
       style="fill:url(#linearGradient900)" />
  </g>
  <!---->
  <flowRoot
     xml:space="preserve"
     id="flowRoot860"
     style="font-style:normal;font-weight:normal;font-size:40px;line-height:1.25;font-family:sans-serif;letter-spacing:0px;word-spacing:0px;fill:#000000;fill-opacity:1;stroke:none"><flowRegion
       id="flowRegion862"><rect
         id="rect864"
         width="148.00771"
         height="64.700516"
         x="123.05784"
         y="18.304626" /></flowRegion><flowPara
       id="flowPara866"></flowPara></flowRoot>  <text
     xml:space="preserve"
     style="font-style:normal;font-weight:normal;font-size:40px;line-height:1.25;font-family:sans-serif;letter-spacing:0px;word-spacing:0px;fill:#000000;fill-opacity:1;stroke:none"
     x="180.61977"
     y="69.77755"
     id="text870"><tspan
       sodipodi:role="line"
       id="tspan868"
       x="180.61977"
       y="105.16817"
       style="font-style:italic;font-variant:normal;font-weight:normal;font-stretch:normal;font-size:64px;font-family:'Estrangelo Nisibin Outline';-inkscape-font-specification:'Estrangelo Nisibin Outline Italic'" /></text>
</svg>
