<svg data-v-d3f97b9e="" xmlns="http://www.w3.org/2000/svg" viewBox="0 0 329 94"><!----><!----><!----><g data-v-d3f97b9e="" id="3dabb4f9-0db2-49f8-94cf-af6e426704a6" fill="white" transform="matrix(5.176876549617888,0,0,5.176876549617888,111.71554112915634,5.843126961511871)"><path d="M0.83 13.40L0.83 13.40L0.83 13.40Q0.66 13.22 0.55 12.94L0.55 12.94L0.55 12.94Q0.44 12.67 0.44 12.30L0.44 12.30L0.44 12.30Q0.44 11.94 0.61 11.32L0.61 11.32L0.61 11.32Q0.78 10.71 1.04 9.92L1.04 9.92L1.61 8.22L1.61 8.22Q2.84 4.66 3.03 2.72L3.03 2.72L3.03 2.72Q3.09 2.15 3.59 2.15L3.59 2.15L3.59 2.15Q3.90 2.15 4.11 2.30L4.11 2.30L4.11 2.30Q4.50 2.60 4.49 2.97L4.49 2.97L4.49 2.97Q4.48 3.34 4.36 3.87L4.36 3.87L4.36 3.87Q4.25 4.40 4.06 5.02L4.06 5.02L4.06 5.02Q3.88 5.65 3.64 6.34L3.64 6.34L2.69 9.12L2.69 9.12Q1.88 11.48 1.88 12.17L1.88 12.17L1.88 12.17Q1.88 12.54 2.18 12.54L2.18 12.54L2.18 12.54Q2.47 12.54 2.70 12.42L2.70 12.42L2.70 12.42Q2.94 12.30 3.01 12.30L3.01 12.30L3.01 12.30Q3.15 12.30 3.15 12.44L3.15 12.44L3.15 12.44Q3.15 13.05 2.53 13.46L2.53 13.46L2.53 13.46Q2.11 13.74 1.77 13.74L1.77 13.74L1.77 13.74Q1.42 13.74 1.21 13.66L1.21 13.66L1.21 13.66Q1.00 13.58 0.83 13.40ZM8.09 4.99L8.09 4.99L8.09 4.99Q7.94 5.15 7.75 5.25L7.75 5.25L7.75 5.25Q7.56 5.35 7.35 5.38L7.35 5.38L7.35 5.38Q7.14 5.40 6.95 5.31L6.95 5.31L6.95 5.31Q6.76 5.22 6.62 5.06L6.62 5.06L6.62 5.06Q6.33 4.72 6.33 4.37L6.33 4.37L6.33 4.37Q6.33 4.02 6.44 3.85L6.44 3.85L6.44 3.85Q6.56 3.67 6.73 3.56L6.73 3.56L6.73 3.56Q7.05 3.35 7.35 3.35L7.35 3.35L7.35 3.35Q7.64 3.35 7.80 3.39L7.80 3.39L7.80 3.39Q7.96 3.43 8.09 3.53L8.09 3.53L8.09 3.53Q8.43 3.75 8.43 4.08L8.43 4.08L8.43 4.08Q8.43 4.40 8.34 4.62L8.34 4.62L8.34 4.62Q8.24 4.83 8.09 4.99ZM6.69 12.39L6.69 12.39L6.69 12.39Q6.87 12.39 6.87 12.63L6.87 12.63L6.87 12.63Q6.87 12.93 6.59 13.26L6.59 13.26L6.59 13.26Q6.18 13.74 5.49 13.74L5.49 13.74L5.49 13.74Q4.70 13.74 4.40 13.10L4.40 13.10L4.40 13.10Q4.29 12.87 4.29 12.55L4.29 12.55L4.29 12.55Q4.29 12.23 4.41 11.84L4.41 11.84L4.41 11.84Q4.52 11.44 4.69 11.01L4.69 11.01L4.69 11.01Q4.85 10.58 5.05 10.13L5.05 10.13L5.41 9.27L5.41 9.27Q5.81 8.31 5.81 8.00L5.81 8.00L5.81 8.00Q5.81 7.69 5.75 7.59L5.75 7.59L5.75 7.59Q5.68 7.49 5.61 7.44L5.61 7.44L5.47 7.34L5.47 7.34Q5.40 7.29 5.40 7.17L5.40 7.17L5.40 7.17Q5.40 7.05 5.49 6.95L5.49 6.95L5.49 6.95Q5.58 6.84 5.74 6.75L5.74 6.75L5.74 6.75Q6.04 6.60 6.45 6.60L6.45 6.60L6.45 6.60Q7.46 6.60 7.46 7.12L7.46 7.12L7.46 7.12Q7.46 7.74 7.14 8.53L7.14 8.53L7.14 8.53Q6.82 9.32 6.59 9.80L6.59 9.80L6.18 10.75L6.18 10.75Q5.73 11.79 5.73 12.24L5.73 12.24L5.73 12.24Q5.73 12.54 6.03 12.54L6.03 12.54L6.03 12.54Q6.32 12.54 6.47 12.47L6.47 12.47L6.47 12.47Q6.62 12.39 6.69 12.39ZM8.47 11.73L8.47 11.73L8.47 11.73Q8.47 11.33 8.53 10.97L8.53 10.97L8.53 10.97Q8.59 10.61 8.68 10.24L8.68 10.24L8.68 10.24Q8.77 9.87 8.89 9.50L8.89 9.50L9.65 7.16L9.65 7.16Q10.56 4.32 10.79 2.72L10.79 2.72L10.79 2.72Q10.87 2.15 11.35 2.15L11.35 2.15L11.35 2.15Q11.64 2.15 11.84 2.30L11.84 2.30L11.84 2.30Q12.20 2.59 12.19 2.92L12.19 2.92L12.19 2.92Q12.18 3.25 12.10 3.66L12.10 3.66L12.10 3.66Q12.01 4.07 11.88 4.55L11.88 4.55L11.88 4.55Q11.74 5.02 11.57 5.55L11.57 5.55L11.57 5.55Q11.12 6.90 10.89 7.51L10.89 7.51L10.50 8.52L10.50 8.52Q11.09 7.60 11.47 7.26L11.47 7.26L11.47 7.26Q12.22 6.60 13.04 6.60L13.04 6.60L13.04 6.60Q14.23 6.60 14.63 7.85L14.63 7.85L14.63 7.85Q14.76 8.28 14.76 8.92L14.76 8.92L14.76 8.92Q14.76 9.56 14.57 10.20L14.57 10.20L14.57 10.20Q14.38 10.83 14.06 11.37L14.06 11.37L14.06 11.37Q13.74 11.92 13.31 12.35L13.31 12.35L13.31 12.35Q12.89 12.79 12.41 13.10L12.41 13.10L12.41 13.10Q11.42 13.74 10.48 13.74L10.48 13.74L10.48 13.74Q9.54 13.74 9.00 13.17L9.00 13.17L9.00 13.17Q8.47 12.59 8.47 11.73ZM10.38 12.85L10.38 12.85L10.38 12.85Q11.03 12.85 11.69 12.28L11.69 12.28L11.69 12.28Q12.70 11.40 13.05 9.78L13.05 9.78L13.05 9.78Q13.17 9.24 13.17 8.66L13.17 8.66L13.17 8.66Q13.17 8.09 13.04 7.85L13.04 7.85L13.04 7.85Q12.91 7.62 12.64 7.62L12.64 7.62L12.64 7.62Q12.37 7.62 12.07 7.84L12.07 7.84L12.07 7.84Q11.78 8.06 11.46 8.42L11.46 8.42L11.46 8.42Q11.14 8.78 10.82 9.25L10.82 9.25L10.82 9.25Q10.51 9.71 10.25 10.21L10.25 10.21L10.25 10.21Q9.70 11.31 9.70 12.08L9.70 12.08L9.70 12.08Q9.70 12.85 10.38 12.85ZM15.79 13.51L15.79 13.51L15.79 13.51Q15.65 13.41 15.57 13.28L15.57 13.28L15.57 13.28Q15.49 13.15 15.48 13.06L15.48 13.06L15.48 13.06Q15.48 12.97 15.52 12.83L15.52 12.83L15.52 12.83Q15.57 12.70 15.64 12.51L15.64 12.51L15.64 12.51Q17.04 9.08 17.04 7.90L17.04 7.90L17.04 7.90Q17.01 7.57 16.81 7.44L16.81 7.44L16.67 7.34L16.67 7.34Q16.61 7.29 16.61 7.17L16.61 7.17L16.61 7.17Q16.60 7.05 16.69 6.95L16.69 6.95L16.69 6.95Q16.78 6.84 16.93 6.75L16.93 6.75L16.93 6.75Q17.22 6.60 17.53 6.60L17.53 6.60L17.53 6.60Q17.84 6.60 18.02 6.67L18.02 6.67L18.02 6.67Q18.19 6.73 18.31 6.85L18.31 6.85L18.31 6.85Q18.57 7.10 18.58 7.37L18.58 7.37L18.58 7.37Q18.58 7.64 18.52 7.92L18.52 7.92L18.52 7.92Q18.45 8.20 18.36 8.47L18.36 8.47L18.36 8.47Q18.27 8.74 18.18 8.99L18.18 8.99L18.18 8.99Q18.09 9.23 18.07 9.34L18.07 9.34L18.07 9.34Q18.01 9.58 18.03 9.65L18.03 9.65L18.03 9.65Q18.19 9.50 18.22 9.37L18.22 9.37L18.49 8.86L18.49 8.86Q19.38 7.26 20.23 6.74L20.23 6.74L20.23 6.74Q20.47 6.60 20.82 6.60L20.82 6.60L20.82 6.60Q21.16 6.60 21.38 6.84L21.38 6.84L21.38 6.84Q21.59 7.08 21.60 7.38L21.60 7.38L21.60 7.38Q21.61 7.67 21.56 7.86L21.56 7.86L21.56 7.86Q21.51 8.06 21.40 8.23L21.40 8.23L21.40 8.23Q21.18 8.61 20.86 8.61L20.86 8.61L20.86 8.61Q20.77 8.61 20.69 8.55L20.69 8.55L20.54 8.42L20.54 8.42Q20.32 8.22 20.11 8.22L20.11 8.22L20.11 8.22Q19.90 8.22 19.60 8.50L19.60 8.50L19.60 8.50Q19.30 8.77 18.98 9.20L18.98 9.20L18.98 9.20Q17.90 10.63 17.22 12.40L17.22 12.40L16.92 13.19L16.92 13.19Q16.80 13.49 16.71 13.61L16.71 13.61L16.71 13.61Q16.63 13.74 16.45 13.74L16.45 13.74L16.45 13.74Q16.28 13.74 16.10 13.68L16.10 13.68L16.10 13.68Q15.93 13.61 15.79 13.51ZM21.81 13.40L21.81 13.40L21.81 13.40Q21.64 13.22 21.54 12.94L21.54 12.94L21.54 12.94Q21.43 12.67 21.43 12.30L21.43 12.30L21.43 12.30Q21.43 11.94 21.60 11.32L21.60 11.32L21.60 11.32Q21.77 10.71 22.03 9.92L22.03 9.92L22.60 8.22L22.60 8.22Q23.82 4.66 24.01 2.72L24.01 2.72L24.01 2.72Q24.08 2.15 24.58 2.15L24.58 2.15L24.58 2.15Q24.89 2.15 25.09 2.30L25.09 2.30L25.09 2.30Q25.49 2.60 25.48 2.97L25.48 2.97L25.48 2.97Q25.46 3.34 25.35 3.87L25.35 3.87L25.35 3.87Q25.23 4.40 25.05 5.02L25.05 5.02L25.05 5.02Q24.86 5.65 24.62 6.34L24.62 6.34L23.68 9.12L23.68 9.12Q22.87 11.48 22.87 12.17L22.87 12.17L22.87 12.17Q22.87 12.54 23.17 12.54L23.17 12.54L23.17 12.54Q23.45 12.54 23.69 12.42L23.69 12.42L23.69 12.42Q23.93 12.30 23.99 12.30L23.99 12.30L23.99 12.30Q24.14 12.30 24.14 12.44L24.14 12.44L24.14 12.44Q24.14 13.05 23.52 13.46L23.52 13.46L23.52 13.46Q23.10 13.74 22.75 13.74L22.75 13.74L22.75 13.74Q22.41 13.74 22.20 13.66L22.20 13.66L22.20 13.66Q21.98 13.58 21.81 13.40ZM25.56 13.44L25.56 13.44L25.56 13.44Q25.41 13.29 25.32 13.09L25.32 13.09L25.32 13.09Q25.23 12.90 25.23 12.64L25.23 12.64L25.23 12.64Q25.23 12.39 25.33 12.19L25.33 12.19L25.33 12.19Q25.43 11.98 25.58 11.86L25.58 11.86L25.58 11.86Q25.85 11.64 26.14 11.64L26.14 11.64L26.14 11.64Q26.44 11.64 26.65 11.68L26.65 11.68L26.65 11.68Q26.86 11.72 27.04 11.81L27.04 11.81L27.04 11.81Q27.47 12.03 27.47 12.44L27.47 12.44L27.47 12.44Q27.47 12.95 27.13 13.34L27.13 13.34L27.13 13.34Q26.82 13.69 26.48 13.73L26.48 13.73L26.48 13.73Q26.14 13.76 25.93 13.68L25.93 13.68L25.93 13.68Q25.72 13.59 25.56 13.44ZM29.11 11.31L29.11 11.31L29.11 11.31Q29.13 10.72 29.30 10.13L29.30 10.13L29.30 10.13Q29.48 9.54 29.77 9.01L29.77 9.01L29.77 9.01Q30.06 8.48 30.46 8.04L30.46 8.04L30.46 8.04Q30.86 7.59 31.33 7.27L31.33 7.27L31.33 7.27Q32.31 6.60 33.40 6.60L33.40 6.60L33.40 6.60Q34.52 6.60 34.92 7.49L34.92 7.49L34.92 7.49Q35.07 7.81 35.06 8.22L35.06 8.22L35.06 8.22Q35.05 8.63 34.92 8.97L34.92 8.97L34.92 8.97Q34.80 9.30 34.62 9.57L34.62 9.57L34.62 9.57Q34.20 10.17 33.78 10.17L33.78 10.17L33.78 10.17Q33.30 10.17 33.08 9.91L33.08 9.91L33.08 9.91Q32.88 9.69 32.96 9.39L32.96 9.39L32.96 9.39Q32.98 9.30 33.08 9.23L33.08 9.23L33.08 9.23Q33.18 9.15 33.34 9.00L33.34 9.00L33.34 9.00Q33.78 8.53 33.80 7.91L33.80 7.91L33.80 7.91Q33.82 7.49 33.28 7.49L33.28 7.49L33.28 7.49Q32.71 7.49 32.08 8.13L32.08 8.13L32.08 8.13Q31.17 9.06 30.79 10.53L30.79 10.53L30.79 10.53Q30.46 11.80 30.91 12.39L30.91 12.39L30.91 12.39Q31.18 12.73 31.64 12.73L31.64 12.73L31.64 12.73Q32.41 12.73 33.13 12.18L33.13 12.18L33.13 12.18Q33.35 12.01 33.48 11.83L33.48 11.83L33.48 11.83Q33.62 11.66 33.74 11.66L33.74 11.66L33.74 11.66Q33.85 11.66 33.93 11.77L33.93 11.77L33.93 11.77Q34.01 11.88 34.01 12.06L34.01 12.06L34.01 12.06Q34.01 12.46 33.65 12.85L33.65 12.85L33.65 12.85Q32.72 13.74 31.41 13.74L31.41 13.74L31.41 13.74Q30.30 13.74 29.69 13.10L29.69 13.10L29.69 13.10Q29.09 12.48 29.11 11.31ZM36.31 13.21L36.31 13.21L36.31 13.21Q36.03 12.93 35.86 12.51L35.86 12.51L35.86 12.51Q35.70 12.09 35.69 11.52L35.69 11.52L35.69 11.52Q35.68 10.94 35.83 10.36L35.83 10.36L35.83 10.36Q35.98 9.77 36.25 9.22L36.25 9.22L36.25 9.22Q36.52 8.67 36.90 8.20L36.90 8.20L36.90 8.20Q37.28 7.72 37.73 7.36L37.73 7.36L37.73 7.36Q38.73 6.60 39.81 6.60L39.81 6.60L39.81 6.60Q41.21 6.60 41.71 7.83L41.71 7.83L41.71 7.83Q42.07 8.73 41.75 10.00L41.75 10.00L41.75 10.00Q41.47 11.17 40.70 12.15L40.70 12.15L40.70 12.15Q39.94 13.13 38.91 13.54L38.91 13.54L38.91 13.54Q38.39 13.74 37.89 13.74L37.89 13.74L37.89 13.74Q37.39 13.74 36.99 13.61L36.99 13.61L36.99 13.61Q36.60 13.48 36.31 13.21ZM37.62 9.89L37.62 9.89L37.62 9.89Q37.41 10.40 37.29 10.93L37.29 10.93L37.29 10.93Q37.17 11.46 37.18 11.94L37.18 11.94L37.18 11.94Q37.19 12.41 37.33 12.68L37.33 12.68L37.33 12.68Q37.47 12.95 37.78 12.95L37.78 12.95L37.78 12.95Q38.10 12.95 38.40 12.74L38.40 12.74L38.40 12.74Q38.71 12.52 38.99 12.17L38.99 12.17L38.99 12.17Q39.28 11.81 39.53 11.35L39.53 11.35L39.53 11.35Q39.79 10.88 39.98 10.38L39.98 10.38L39.98 10.38Q40.39 9.28 40.38 8.42L40.38 8.42L40.38 8.42Q40.38 7.67 40.07 7.46L40.07 7.46L40.07 7.46Q39.95 7.38 39.73 7.38L39.73 7.38L39.73 7.38Q39.50 7.38 39.22 7.58L39.22 7.58L39.22 7.58Q38.93 7.79 38.64 8.13L38.64 8.13L38.64 8.13Q38.36 8.47 38.09 8.93L38.09 8.93L38.09 8.93Q37.82 9.39 37.62 9.89Z"></path></g><!----><g data-v-d3f97b9e="" id="f609c0b8-dc2c-4053-82af-e0c653314e10" transform="matrix(1.0216915554470487,0,0,1.0216915554470487,-4.083495423946687,-4.0626091338914065)" stroke="none" fill="white"><path d="M89.978 23.908l1.813.681-10.406 27.725-1.814-.68z"></path><path d="M92.99 30.973l1.622 1.06-16.203 24.791-1.621-1.06z"></path><path d="M75.86 63.963C14.869 44.158 59.846 12.536 59.846 12.536c25.83 14.727 22 36.158 18.413 46.052 4.302-11.47 9.46-37.153-20.864-54.476 0 0-52.65 37.61 18.188 60.383 0 0 .208-.357.544-1.017-.168.315-.267.485-.267.485z"></path><path d="M13.333 87.402S10.188 37.15 53.461 55.463C.275 30.762 4.061 91.235 4.061 91.235c44.99 17.822 63.396-18.962 66.143-25.192-2.862 6.281-18.866 36.415-56.871 21.359z"></path><path d="M46.016 62.246c-.648 0-1.315-.062-1.983-.186-2.126-.388-3.811-1.287-4.505-2.405-.339-.547-.435-1.131-.275-1.688.368-1.292 1.979-2.064 4.312-2.064.646 0 1.311.062 1.978.185 2.125.388 3.81 1.287 4.504 2.405.34.548.436 1.132.276 1.69-.367 1.292-1.978 2.063-4.307 2.063zm-2.452-4.406c-1.72 0-2.408.514-2.45.658-.003.255.974 1.239 3.268 1.658a9.136 9.136 0 0 0 1.633.153c1.586 0 2.391-.471 2.444-.657.006-.255-.965-1.239-3.266-1.66a9.073 9.073 0 0 0-1.629-.152zM52.645 42.007c1.411-.378 3.095 1.362 3.767 3.882.669 2.519.071 4.866-1.342 5.24-1.408.375-3.092-1.366-3.762-3.884-.67-2.519-.071-4.866 1.337-5.238z"></path><ellipse transform="rotate(-176.03 79.102 56.452)" cx="79.103" cy="56.45" rx="2.74" ry="3.11"></ellipse><ellipse transform="rotate(3.97 76.479 60.82)" cx="76.448" cy="60.839" rx="2.345" ry="2.392"></ellipse><path d="M76.195 64.512c-.103 1.448-1.256 2.549-2.581 2.457-1.323-.091-2.319-1.343-2.216-2.791.101-1.446 1.256-2.551 2.581-2.456 1.323.089 2.314 1.339 2.216 2.79z"></path><path d="M73.951 67.442c-.103 1.447-1.169 2.557-2.386 2.473-1.217-.085-2.121-1.329-2.019-2.777.098-1.448 1.167-2.557 2.382-2.473 1.218.084 2.121 1.328 2.023 2.777z"></path><path d="M71.103 70.642c-.083 1.191-1.093 2.088-2.261 2.005-1.166-.079-2.044-1.109-1.965-2.294.085-1.19 1.099-2.088 2.262-2.009 1.168.082 2.045 1.109 1.964 2.298z"></path><path d="M68.759 73.809c-.087 1.31-1.129 2.304-2.324 2.216-1.195-.081-2.092-1.209-2.001-2.515.089-1.308 1.133-2.299 2.328-2.22 1.195.083 2.09 1.209 1.997 2.519z"></path><path d="M66.735 76.453c-.091 1.31-1.055 2.308-2.149 2.232-1.099-.076-1.915-1.198-1.824-2.507.089-1.309 1.053-2.305 2.153-2.229 1.093.077 1.909 1.199 1.82 2.504zM96 30.635a1.453 1.453 0 0 1-2.905 0 1.453 1.453 0 0 1 2.905 0zM92.126 23.856a1.454 1.454 0 0 1-2.905 0 1.453 1.453 0 0 1 2.905 0z"></path></g><!----></svg>