<?xml version="1.0" encoding="UTF-8" standalone="no"?>
<svg
   xmlns:dc="http://purl.org/dc/elements/1.1/"
   xmlns:cc="http://creativecommons.org/ns#"
   xmlns:rdf="http://www.w3.org/1999/02/22-rdf-syntax-ns#"
   xmlns:svg="http://www.w3.org/2000/svg"
   xmlns="http://www.w3.org/2000/svg"
   xmlns:sodipodi="http://sodipodi.sourceforge.net/DTD/sodipodi-0.dtd"
   xmlns:inkscape="http://www.inkscape.org/namespaces/inkscape"
   data-v-29081953=""
   viewBox="0 0 300 300"
   version="1.1"
   id="svg38"
   sodipodi:docname="isolated-layout-no-bg.svg"
   inkscape:version="0.92.2 5c3e80d, 2017-08-06">
  <metadata
     id="metadata42">
    <rdf:RDF>
      <cc:Work
         rdf:about="">
        <dc:format>image/svg+xml</dc:format>
        <dc:type
           rdf:resource="http://purl.org/dc/dcmitype/StillImage" />
        <dc:title></dc:title>
      </cc:Work>
    </rdf:RDF>
  </metadata>
  <sodipodi:namedview
     pagecolor="#ffffff"
     bordercolor="#666666"
     borderopacity="1"
     objecttolerance="10"
     gridtolerance="10"
     guidetolerance="10"
     inkscape:pageopacity="0"
     inkscape:pageshadow="2"
     inkscape:window-width="1280"
     inkscape:window-height="710"
     id="namedview40"
     showgrid="false"
     inkscape:zoom="0.78666667"
     inkscape:cx="151.27119"
     inkscape:cy="150"
     inkscape:window-x="0"
     inkscape:window-y="1"
     inkscape:window-maximized="1"
     inkscape:current-layer="svg38" />
  <!---->
  <defs
     data-v-29081953=""
     id="defs2">
    <!---->
  </defs>
  <rect
     data-v-29081953=""
     fill="#FDEEEE"
     x="0"
     y="0"
     width="300px"
     height="300px"
     class="logo-background-square"
     id="rect4"
     style="fill:none" />
  <!---->
  <defs
     data-v-29081953=""
     id="defs11">
    <linearGradient
       data-v-29081953=""
       gradientTransform="rotate(25)"
       id="b0e289ae-0a67-424b-a0a0-a3b4851ff106"
       x1="0%"
       y1="0%"
       x2="100%"
       y2="0%">
      <stop
         data-v-29081953=""
         offset="0%"
         stop-color="#F00079"
         stop-opacity="1"
         id="stop6" />
      <stop
         data-v-29081953=""
         offset="100%"
         stop-color="#F2A041"
         stop-opacity="1"
         id="stop8" />
    </linearGradient>
  </defs>
  <g
     data-v-29081953=""
     id="b7d50067-6d36-4144-9616-cadfefcc2885"
     fill="url(#b0e289ae-0a67-424b-a0a0-a3b4851ff106)"
     stroke="none"
     transform="matrix(2.3913618581140645,0,0,2.3913618581140645,30.429270743371347,30.221190589015038)">
    <path
       d="M89.978 23.908l1.813.681-10.406 27.725-1.814-.68z"
       id="path13" />
    <path
       d="M92.99 30.973l1.622 1.06-16.203 24.791-1.621-1.06z"
       id="path15" />
    <path
       d="M75.86 63.963C14.869 44.158 59.846 12.536 59.846 12.536c25.83 14.727 22 36.158 18.413 46.052 4.302-11.47 9.46-37.153-20.864-54.476 0 0-52.65 37.61 18.188 60.383 0 0 .208-.357.544-1.017-.168.315-.267.485-.267.485z"
       id="path17" />
    <path
       d="M13.333 87.402S10.188 37.15 53.461 55.463C.275 30.762 4.061 91.235 4.061 91.235c44.99 17.822 63.396-18.962 66.143-25.192-2.862 6.281-18.866 36.415-56.871 21.359z"
       id="path19" />
    <path
       d="M46.016 62.246c-.648 0-1.315-.062-1.983-.186-2.126-.388-3.811-1.287-4.505-2.405-.339-.547-.435-1.131-.275-1.688.368-1.292 1.979-2.064 4.312-2.064.646 0 1.311.062 1.978.185 2.125.388 3.81 1.287 4.504 2.405.34.548.436 1.132.276 1.69-.367 1.292-1.978 2.063-4.307 2.063zm-2.452-4.406c-1.72 0-2.408.514-2.45.658-.003.255.974 1.239 3.268 1.658a9.136 9.136 0 0 0 1.633.153c1.586 0 2.391-.471 2.444-.657.006-.255-.965-1.239-3.266-1.66a9.073 9.073 0 0 0-1.629-.152zM52.645 42.007c1.411-.378 3.095 1.362 3.767 3.882.669 2.519.071 4.866-1.342 5.24-1.408.375-3.092-1.366-3.762-3.884-.67-2.519-.071-4.866 1.337-5.238z"
       id="path21" />
    <ellipse
       transform="rotate(-176.03 79.102 56.452)"
       cx="79.103"
       cy="56.45"
       rx="2.74"
       ry="3.11"
       id="ellipse23" />
    <ellipse
       transform="rotate(3.97 76.479 60.82)"
       cx="76.448"
       cy="60.839"
       rx="2.345"
       ry="2.392"
       id="ellipse25" />
    <path
       d="M76.195 64.512c-.103 1.448-1.256 2.549-2.581 2.457-1.323-.091-2.319-1.343-2.216-2.791.101-1.446 1.256-2.551 2.581-2.456 1.323.089 2.314 1.339 2.216 2.79z"
       id="path27" />
    <path
       d="M73.951 67.442c-.103 1.447-1.169 2.557-2.386 2.473-1.217-.085-2.121-1.329-2.019-2.777.098-1.448 1.167-2.557 2.382-2.473 1.218.084 2.121 1.328 2.023 2.777z"
       id="path29" />
    <path
       d="M71.103 70.642c-.083 1.191-1.093 2.088-2.261 2.005-1.166-.079-2.044-1.109-1.965-2.294.085-1.19 1.099-2.088 2.262-2.009 1.168.082 2.045 1.109 1.964 2.298z"
       id="path31" />
    <path
       d="M68.759 73.809c-.087 1.31-1.129 2.304-2.324 2.216-1.195-.081-2.092-1.209-2.001-2.515.089-1.308 1.133-2.299 2.328-2.22 1.195.083 2.09 1.209 1.997 2.519z"
       id="path33" />
    <path
       d="M66.735 76.453c-.091 1.31-1.055 2.308-2.149 2.232-1.099-.076-1.915-1.198-1.824-2.507.089-1.309 1.053-2.305 2.153-2.229 1.093.077 1.909 1.199 1.82 2.504zM96 30.635a1.453 1.453 0 0 1-2.905 0 1.453 1.453 0 0 1 2.905 0zM92.126 23.856a1.454 1.454 0 0 1-2.905 0 1.453 1.453 0 0 1 2.905 0z"
       id="path35" />
  </g>
  <!---->
</svg>
